<svg xmlns="http://www.w3.org/2000/svg" viewBox="0 0 800 1200" width="800" height="1200" role="img" aria-label="Ashfall Courier, chapter 1, page 1">
<rect width="800" height="1200" fill="#efe7dc"/>
<clipPath id="p1_0"><rect x="26" y="26" width="748" height="657.6"/></clipPath><g clip-path="url(#p1_0)"><rect x="26" y="26" width="748" height="657.6" fill="#cfc6ba"/><path d="M295.3 631 L470.3 223.3 L569 223.3 L744.1 631 Z" fill="#2e2723"/><path d="M470.3 223.3 q44.9 -65.8 98.7 0" fill="none" stroke="#e8622a" stroke-width="5" stroke-linecap="round"/><circle cx="519.7" cy="183.8" r="97.2" fill="#e8622a" opacity="0.22"/><path d="M26 683.6 L26 552.1 L87.8 570.1 L121.9 539.6 L156.7 500.5 L223.2 547.4 L299.5 495.2 L337.6 521.9 L366.5 622 L403.4 571.4 L455.3 605.7 L482 566.6 L527.6 630 L553.2 519.6 L601.6 579.2 L655.5 599.5 L683.9 630.2 L764.1 607.3 L774 505.5 L774 683.6 Z" fill="#2e2723"/><g fill="#8d8378" opacity="0.45"><circle cx="499" cy="131" r="2.9"/><circle cx="454" cy="582" r="1.4"/><circle cx="569" cy="539" r="1.8"/><circle cx="332" cy="297" r="3"/><circle cx="714" cy="385" r="2.6"/><circle cx="622" cy="380" r="2.7"/><circle cx="126" cy="492" r="1.2"/><circle cx="683" cy="499" r="2.3"/><circle cx="196" cy="473" r="2.3"/><circle cx="99" cy="514" r="1.4"/><circle cx="63" cy="596" r="2.6"/><circle cx="267" cy="619" r="1.9"/><circle cx="581" cy="619" r="3"/><circle cx="474" cy="228" r="0.9"/><circle cx="482" cy="514" r="1.9"/><circle cx="214" cy="429" r="1.2"/><circle cx="258" cy="94" r="1"/><circle cx="491" cy="388" r="2.7"/><circle cx="630" cy="439" r="2.5"/><circle cx="450" cy="604" r="1.1"/><circle cx="543" cy="652" r="2.3"/><circle cx="419" cy="593" r="1.5"/><circle cx="342" cy="439" r="1.4"/><circle cx="51" cy="478" r="1.5"/><circle cx="107" cy="415" r="2.9"/><circle cx="470" cy="263" r="0.9"/><circle cx="38" cy="535" r="1.4"/><circle cx="318" cy="185" r="1.8"/><circle cx="136" cy="306" r="2.8"/><circle cx="736" cy="307" r="2.5"/><circle cx="502" cy="682" r="1.3"/><circle cx="165" cy="250" r="1.3"/><circle cx="259" cy="581" r="2.8"/></g><g transform="translate(190.6 433.7) scale(0.7 0.7)" stroke="#1b1714" stroke-width="5" stroke-linecap="round" fill="none"><circle cx="0" cy="-8" r="11" fill="#efe7dc"/><path d="M0 3 L0 48" /><path d="M0 16 L-22 34 M0 16 L20 6"/><path d="M0 46 L-16 84 M0 46 L18 78 L26 86"/></g><g transform="translate(190.6 433.7) scale(0.7 0.7)"><path d="M-8 -2 q-26 6 -44 -6 q22 22 44 14 Z" fill="#e8622a"/><rect x="4" y="20" width="20" height="16" rx="3" fill="#2e2723"/></g><rect x="36" y="36" width="356.7" height="63.5" fill="#2e2723" opacity="0.92"/><text x="48" y="56" font-size="18" fill="#efe7dc" font-family="Georgia, 'Times New Roman', serif">VENT. Two hundred and eleven days</text><text x="48" y="79.8" font-size="18" fill="#efe7dc" font-family="Georgia, 'Times New Roman', serif">of ash, and counting.</text></g><rect x="26" y="26" width="748" height="657.6" fill="none" stroke="#1b1714" stroke-width="4"/><clipPath id="p1_1"><rect x="26" y="701.6" width="748" height="438.4"/></clipPath><g clip-path="url(#p1_1)"><rect x="26" y="701.6" width="748" height="438.40000000000003" fill="#d8cfc2"/><path d="M26 1140 L26 885.7 L88.5 879.6 L136.2 891.6 L210.6 868.6 L238.8 921.3 L301.3 923.1 L343.4 887.7 L389.2 884.8 L430.8 941.9 L467.6 870.5 L509.7 942.7 L580.7 884.4 L652.9 885.6 L679.7 874.5 L708.4 896.1 L743.1 854.6 L774 904.1 L774 1140 Z" fill="#2e2723"/><path d="M26 1140 L26 990.9 L88.6 1011 L139.5 1007.5 L213.9 997.3 L259.7 1002.2 L293.7 1045 L357.5 998.2 L399.2 976 L481.9 989.1 L546.2 980.1 L582 1015.2 L657.4 959.6 L730.3 1011.6 L774 1011.1 L774 1140 Z" fill="#2e2723"/><g fill="#8d8378" opacity="0.45"><circle cx="510" cy="848" r="2.8"/><circle cx="675" cy="777" r="1.8"/><circle cx="633" cy="1072" r="1.3"/><circle cx="340" cy="830" r="2.9"/><circle cx="108" cy="1079" r="2.6"/><circle cx="108" cy="1095" r="1.7"/><circle cx="463" cy="1028" r="1.6"/><circle cx="458" cy="779" r="1.2"/><circle cx="278" cy="764" r="2.3"/><circle cx="733" cy="740" r="2.7"/><circle cx="486" cy="832" r="1.9"/><circle cx="435" cy="1057" r="2.6"/><circle cx="566" cy="996" r="1.7"/><circle cx="570" cy="1116" r="1.2"/><circle cx="172" cy="799" r="2.2"/><circle cx="191" cy="924" r="1.1"/><circle cx="576" cy="919" r="2.6"/><circle cx="561" cy="840" r="1.2"/><circle cx="440" cy="709" r="2"/><circle cx="269" cy="952" r="2.3"/><circle cx="278" cy="923" r="2.3"/><circle cx="746" cy="800" r="1.6"/><circle cx="667" cy="988" r="1.5"/><circle cx="409" cy="834" r="1.5"/><circle cx="355" cy="1086" r="1.3"/><circle cx="330" cy="984" r="2.9"/><circle cx="246" cy="1032" r="2.8"/></g><rect x="257.6" y="771" width="284.9" height="106.6" rx="41" fill="#efe7dc" stroke="#1b1714" stroke-width="3.5"/><path d="M449.7 875.7 L467.7 903.7 L475.7 875.7 Z" fill="#efe7dc" stroke="#1b1714" stroke-width="3.5"/><path d="M451.7 874.7 h22" stroke="#efe7dc" stroke-width="5"/><text x="400" y="791" font-size="21" text-anchor="middle" fill="#1b1714" font-family="Verdana, Geneva, sans-serif">Nothing flies here.</text><text x="400" y="817.9" font-size="21" text-anchor="middle" fill="#1b1714" font-family="Verdana, Geneva, sans-serif">Nothing broadcasts. So</text><text x="400" y="844.8" font-size="21" text-anchor="middle" fill="#1b1714" font-family="Verdana, Geneva, sans-serif">we run.</text></g><rect x="26" y="701.6" width="748" height="438.4" fill="none" stroke="#1b1714" stroke-width="4"/>
<text x="774" y="1186" font-size="17" fill="#8d8378" font-family="Verdana, Geneva, sans-serif" text-anchor="end">ASHFALL COURIER — 1.01</text>
</svg>
