<svg xmlns="http://www.w3.org/2000/svg" viewBox="0 0 800 1200" width="800" height="1200" role="img" aria-label="Ashfall Courier, chapter 4, page 3">
<rect width="800" height="1200" fill="#efe7dc"/>
<clipPath id="p3_0"><rect x="26" y="26" width="748" height="498.2"/></clipPath><g clip-path="url(#p3_0)"><rect x="26" y="26" width="748" height="498.1818181818182" fill="#e7dfd2"/><g fill="#8d8378" opacity="0.45"><circle cx="629" cy="475" r="2.9"/><circle cx="546" cy="311" r="1"/><circle cx="278" cy="429" r="1.5"/><circle cx="341" cy="398" r="1.4"/><circle cx="649" cy="326" r="1.7"/><circle cx="474" cy="246" r="2.8"/><circle cx="434" cy="408" r="1.9"/><circle cx="540" cy="451" r="2.7"/><circle cx="643" cy="487" r="0.9"/><circle cx="451" cy="418" r="1"/><circle cx="700" cy="391" r="2.3"/></g><circle cx="400" cy="285.1" r="149.5" fill="#efe7dc" stroke="#1b1714" stroke-width="5"/><path d="M332.7 262.6 h50.8 M416.4 262.6 h50.8" stroke="#1b1714" stroke-width="6" stroke-linecap="round"/><path d="M355.2 341.8 q44.8 29.9 89.7 0" stroke="#1b1714" stroke-width="5" fill="none" stroke-linecap="round"/><path d="M250.5 389.7 q149.5 74.7 298.9 0 l0 74.7 q-149.5 -44.8 -298.9 0 Z" fill="#e8622a"/><rect x="274.3" y="72.3" width="251.5" height="106.6" rx="41" fill="#efe7dc" stroke="#1b1714" stroke-width="3.5"/><path d="M442.3 177 L460.3 205 L468.3 177 Z" fill="#efe7dc" stroke="#1b1714" stroke-width="3.5"/><path d="M444.3 176 h22" stroke="#efe7dc" stroke-width="5"/><text x="400" y="92.3" font-size="21" text-anchor="middle" fill="#1b1714" font-family="Verdana, Geneva, sans-serif">Breathe through the</text><text x="400" y="119.2" font-size="21" text-anchor="middle" fill="#1b1714" font-family="Verdana, Geneva, sans-serif">scarf. Four in, six</text><text x="400" y="146.1" font-size="21" text-anchor="middle" fill="#1b1714" font-family="Verdana, Geneva, sans-serif">out.</text></g><rect x="26" y="26" width="748" height="498.2" fill="none" stroke="#1b1714" stroke-width="4"/><clipPath id="p3_1"><rect x="26" y="542.2" width="748" height="597.8"/></clipPath><g clip-path="url(#p3_1)"><rect x="26" y="542.1818181818182" width="748" height="597.8181818181818" fill="#e2d9cc"/><path d="M26 1140 L26 1008.5 L99.1 1025.8 L171 1057 L249 1058.1 L323.2 1005.4 L352.2 967.3 L430.4 974.4 L464.1 982.8 L490.3 971.1 L567.3 1003.1 L603.6 1019.5 L660.1 957.1 L701.5 1082.8 L739.3 1053 L774 1062.8 L774 1140 Z" fill="#2e2723"/><g fill="#8d8378" opacity="0.45"><circle cx="639" cy="1131" r="1.3"/><circle cx="739" cy="681" r="1.9"/><circle cx="768" cy="1114" r="2.2"/><circle cx="306" cy="646" r="2"/><circle cx="60" cy="1118" r="1.2"/><circle cx="360" cy="930" r="1.8"/><circle cx="548" cy="1091" r="3"/><circle cx="642" cy="926" r="1.5"/><circle cx="637" cy="1109" r="1.8"/><circle cx="511" cy="735" r="1"/><circle cx="684" cy="546" r="1.7"/><circle cx="552" cy="577" r="2.8"/><circle cx="346" cy="956" r="2.8"/><circle cx="311" cy="1115" r="3"/><circle cx="488" cy="848" r="1.6"/><circle cx="416" cy="895" r="2.5"/><circle cx="531" cy="944" r="1.1"/><circle cx="227" cy="570" r="0.8"/></g><g transform="translate(400 721.5) scale(1.15 1.15)" stroke="#1b1714" stroke-width="5" stroke-linecap="round" fill="none"><circle cx="0" cy="-8" r="11" fill="#efe7dc"/><path d="M0 3 L0 48" /><path d="M0 16 L-22 34 M0 16 L20 6"/><path d="M0 46 L-16 84 M0 46 L18 78 L26 86"/></g><g transform="translate(400 721.5) scale(1.15 1.15)"><path d="M-8 -2 q-26 6 -44 -6 q22 22 44 14 Z" fill="#e8622a"/><rect x="4" y="20" width="20" height="16" rx="3" fill="#2e2723"/></g><path d="M100.8 1056.3 L699.2 1056.3" stroke="#1b1714" stroke-width="4"/></g><rect x="26" y="542.2" width="748" height="597.8" fill="none" stroke="#1b1714" stroke-width="4"/>
<text x="774" y="1186" font-size="17" fill="#8d8378" font-family="Verdana, Geneva, sans-serif" text-anchor="end">ASHFALL COURIER — 4.03</text>
</svg>
