<svg xmlns="http://www.w3.org/2000/svg" viewBox="0 0 800 1200" width="800" height="1200" role="img" aria-label="Ashfall Courier, chapter 3, page 1">
<rect width="800" height="1200" fill="#efe7dc"/>
<clipPath id="p1_0"><rect x="26" y="26" width="748" height="1114"/></clipPath><g clip-path="url(#p1_0)"><rect x="26" y="26" width="748" height="1114" fill="#ded5c8"/><path d="M26 1140 L26 583 L74.3 713.3 L133.4 569.8 L164.1 599.1 L235.1 650 L277.2 706.5 L342.4 684.9 L414.6 612.1 L490.7 662.4 L561.2 526.9 L597.9 500.2 L654 631.1 L707.5 630.7 L743.6 536.3 L774 700.2 L774 1140 Z" fill="#2e2723"/><g transform="translate(115.8 459.4) scale(-0.55 0.55)" stroke="#1b1714" stroke-width="5" stroke-linecap="round" fill="none"><circle cx="0" cy="-8" r="11" fill="#efe7dc"/><path d="M0 3 L0 48" /><path d="M0 16 L-14 40 M0 16 L14 40"/><path d="M-5 46 L-7 88 M5 46 L8 88"/></g><g transform="translate(115.8 459.4) scale(-0.55 0.55)"><path d="M-8 -2 q-26 6 -44 -6 q22 22 44 14 Z" fill="#e8622a"/><rect x="4" y="20" width="20" height="16" rx="3" fill="#2e2723"/></g><g transform="translate(228 504.8) scale(0.55 0.55)" stroke="#1b1714" stroke-width="5" stroke-linecap="round" fill="none"><circle cx="0" cy="-8" r="11" fill="#efe7dc"/><path d="M0 3 L0 48" /><path d="M0 16 L-14 40 M0 16 L14 40"/><path d="M-5 46 L-7 88 M5 46 L8 88"/></g><g transform="translate(228 504.8) scale(0.55 0.55)"><path d="M-8 -2 q-26 6 -44 -6 q22 22 44 14 Z" fill="#e8622a"/><rect x="4" y="20" width="20" height="16" rx="3" fill="#2e2723"/></g><g transform="translate(340.2 504.6) scale(-0.55 0.55)" stroke="#1b1714" stroke-width="5" stroke-linecap="round" fill="none"><circle cx="0" cy="-8" r="11" fill="#efe7dc"/><path d="M0 3 L0 48" /><path d="M0 16 L-14 40 M0 16 L14 40"/><path d="M-5 46 L-7 88 M5 46 L8 88"/></g><g transform="translate(340.2 504.6) scale(-0.55 0.55)"><path d="M-8 -2 q-26 6 -44 -6 q22 22 44 14 Z" fill="#e8622a"/><rect x="4" y="20" width="20" height="16" rx="3" fill="#2e2723"/></g><g transform="translate(452.4 495.6) scale(0.55 0.55)" stroke="#1b1714" stroke-width="5" stroke-linecap="round" fill="none"><circle cx="0" cy="-8" r="11" fill="#efe7dc"/><path d="M0 3 L0 48" /><path d="M0 16 L-14 40 M0 16 L14 40"/><path d="M-5 46 L-7 88 M5 46 L8 88"/></g><g transform="translate(452.4 495.6) scale(0.55 0.55)"><path d="M-8 -2 q-26 6 -44 -6 q22 22 44 14 Z" fill="#e8622a"/><rect x="4" y="20" width="20" height="16" rx="3" fill="#2e2723"/></g><g transform="translate(564.6 419.6) scale(-0.55 0.55)" stroke="#1b1714" stroke-width="5" stroke-linecap="round" fill="none"><circle cx="0" cy="-8" r="11" fill="#efe7dc"/><path d="M0 3 L0 48" /><path d="M0 16 L-14 40 M0 16 L14 40"/><path d="M-5 46 L-7 88 M5 46 L8 88"/></g><g transform="translate(564.6 419.6) scale(-0.55 0.55)"><path d="M-8 -2 q-26 6 -44 -6 q22 22 44 14 Z" fill="#e8622a"/><rect x="4" y="20" width="20" height="16" rx="3" fill="#2e2723"/></g><g transform="translate(676.8 430.8) scale(0.55 0.55)" stroke="#1b1714" stroke-width="5" stroke-linecap="round" fill="none"><circle cx="0" cy="-8" r="11" fill="#efe7dc"/><path d="M0 3 L0 48" /><path d="M0 16 L-14 40 M0 16 L14 40"/><path d="M-5 46 L-7 88 M5 46 L8 88"/></g><g transform="translate(676.8 430.8) scale(0.55 0.55)"><path d="M-8 -2 q-26 6 -44 -6 q22 22 44 14 Z" fill="#e8622a"/><rect x="4" y="20" width="20" height="16" rx="3" fill="#2e2723"/></g><g fill="#8d8378" opacity="0.45"><circle cx="331" cy="556" r="2.3"/><circle cx="451" cy="150" r="2.9"/><circle cx="302" cy="216" r="1.6"/><circle cx="212" cy="482" r="2.8"/><circle cx="524" cy="282" r="1.3"/><circle cx="415" cy="798" r="1.4"/><circle cx="29" cy="452" r="2.3"/><circle cx="754" cy="598" r="0.9"/><circle cx="703" cy="984" r="2.4"/><circle cx="385" cy="738" r="1.4"/><circle cx="527" cy="1092" r="1.8"/><circle cx="401" cy="308" r="1"/><circle cx="50" cy="118" r="3"/><circle cx="390" cy="669" r="1.7"/><circle cx="190" cy="386" r="2.5"/><circle cx="378" cy="242" r="1.5"/></g><rect x="36" y="36" width="356.7" height="63.5" fill="#2e2723" opacity="0.92"/><text x="48" y="56" font-size="18" fill="#efe7dc" font-family="Georgia, 'Times New Roman', serif">The market under the water pipes.</text><text x="48" y="79.8" font-size="18" fill="#efe7dc" font-family="Georgia, 'Times New Roman', serif">Warm, for once.</text></g><rect x="26" y="26" width="748" height="1114" fill="none" stroke="#1b1714" stroke-width="4"/>
<text x="774" y="1186" font-size="17" fill="#8d8378" font-family="Verdana, Geneva, sans-serif" text-anchor="end">ASHFALL COURIER — 3.01</text>
</svg>
