<svg xmlns="http://www.w3.org/2000/svg" viewBox="0 0 800 1200" width="800" height="1200" role="img" aria-label="Ashfall Courier, chapter 1, page 5">
<rect width="800" height="1200" fill="#efe7dc"/>
<clipPath id="p5_0"><rect x="26" y="26" width="748" height="597.8"/></clipPath><g clip-path="url(#p5_0)"><rect x="26" y="26" width="748" height="597.8181818181818" fill="#d4cbbe"/><rect x="26" y="540.1" width="194.5" height="53.8" fill="#2e2723" opacity="0.5"/><rect x="85.8" y="486.3" width="194.5" height="53.8" fill="#2e2723" opacity="0.56"/><rect x="145.7" y="432.5" width="194.5" height="53.8" fill="#2e2723" opacity="0.62"/><rect x="205.5" y="378.7" width="194.5" height="53.8" fill="#2e2723" opacity="0.68"/><rect x="265.4" y="324.9" width="194.5" height="53.8" fill="#2e2723" opacity="0.74"/><rect x="325.2" y="271.1" width="194.5" height="53.8" fill="#2e2723" opacity="0.8"/><rect x="385" y="217.3" width="194.5" height="53.8" fill="#2e2723" opacity="0.86"/><g transform="translate(489.8 205.3) scale(0.8 0.8)" stroke="#1b1714" stroke-width="5" stroke-linecap="round" fill="none"><circle cx="0" cy="-8" r="11" fill="#efe7dc"/><path d="M0 3 L0 48" /><path d="M0 16 L-14 40 M0 16 L14 40"/><path d="M0 46 L-20 72 L-14 88 M0 46 L16 74"/></g><g transform="translate(489.8 205.3) scale(0.8 0.8)"><path d="M-8 -2 q-26 6 -44 -6 q22 22 44 14 Z" fill="#e8622a"/><rect x="4" y="20" width="20" height="16" rx="3" fill="#2e2723"/></g><g fill="#8d8378" opacity="0.45"><circle cx="519" cy="276" r="1.3"/><circle cx="121" cy="523" r="2.7"/><circle cx="375" cy="621" r="2"/><circle cx="305" cy="456" r="1.3"/><circle cx="268" cy="159" r="2"/><circle cx="742" cy="89" r="2.8"/><circle cx="577" cy="562" r="2.7"/><circle cx="560" cy="603" r="2.2"/><circle cx="271" cy="125" r="0.9"/><circle cx="45" cy="398" r="2.7"/><circle cx="470" cy="367" r="1.4"/><circle cx="149" cy="218" r="1.2"/><circle cx="658" cy="397" r="3"/></g></g><rect x="26" y="26" width="748" height="597.8" fill="none" stroke="#1b1714" stroke-width="4"/><clipPath id="p5_1"><rect x="26" y="641.8" width="748" height="498.2"/></clipPath><g clip-path="url(#p5_1)"><rect x="26" y="641.8181818181818" width="748" height="498.1818181818182" fill="#d8cfc2"/><path d="M26 1140 L26 851.1 L90.1 862.4 L171.4 914.4 L205 814.6 L251.8 814.5 L289.9 883.3 L323.1 915.5 L394.6 819.7 L467.8 881.4 L529.4 837.4 L589.7 839.2 L660.3 879.4 L707.1 837.3 L732.8 843 L774 880.4 L774 1140 Z" fill="#2e2723"/><path d="M26 1140 L26 970.6 L90.2 1011.8 L114.7 936.6 L148.3 960.8 L212.7 1016.1 L282.3 1021.8 L337.3 931.4 L404.5 1033 L458.8 935 L488 961.9 L542 1031.2 L617.1 964.8 L664.5 980.5 L711.4 998.2 L773.2 1033 L774 1026.1 L774 1140 Z" fill="#2e2723"/><g fill="#8d8378" opacity="0.45"><circle cx="529" cy="892" r="1.9"/><circle cx="314" cy="887" r="1.4"/><circle cx="118" cy="714" r="2.6"/><circle cx="270" cy="714" r="1.9"/><circle cx="427" cy="933" r="1.5"/><circle cx="627" cy="798" r="1.8"/><circle cx="691" cy="665" r="1.6"/><circle cx="662" cy="1017" r="0.9"/><circle cx="265" cy="735" r="1.7"/><circle cx="105" cy="720" r="2.7"/><circle cx="454" cy="1063" r="0.9"/><circle cx="610" cy="1056" r="2"/><circle cx="750" cy="925" r="2"/><circle cx="542" cy="1018" r="2.3"/><circle cx="211" cy="676" r="2.4"/><circle cx="146" cy="892" r="2.1"/><circle cx="766" cy="928" r="2.7"/><circle cx="163" cy="1013" r="1.6"/><circle cx="370" cy="1128" r="1.2"/><circle cx="560" cy="814" r="2.1"/><circle cx="275" cy="890" r="2.2"/><circle cx="419" cy="790" r="1.1"/><circle cx="229" cy="766" r="2.9"/><circle cx="120" cy="733" r="1.6"/><circle cx="324" cy="702" r="1.4"/><circle cx="700" cy="782" r="1"/><circle cx="649" cy="670" r="2.4"/></g><rect x="156.5" y="715" width="262.6" height="52.9" rx="20.3" fill="#efe7dc" stroke="#1b1714" stroke-width="3.5"/><path d="M206.5 765.9 L224.5 793.9 L232.5 765.9 Z" fill="#efe7dc" stroke="#1b1714" stroke-width="3.5"/><path d="M208.5 764.9 h22" stroke="#efe7dc" stroke-width="5"/><text x="287.8" y="735" font-size="21" text-anchor="middle" fill="#1b1714" font-family="Verdana, Geneva, sans-serif">Stack is loud today.</text><rect x="375.3" y="824.6" width="273.7" height="52.9" rx="20.3" fill="#efe7dc" stroke="#1b1714" stroke-width="3.5"/><path d="M559.4 875.5 L577.4 903.5 L585.4 875.5 Z" fill="#efe7dc" stroke="#1b1714" stroke-width="3.5"/><path d="M561.4 874.5 h22" stroke="#efe7dc" stroke-width="5"/><text x="512.2" y="844.6" font-size="21" text-anchor="middle" fill="#1b1714" font-family="Verdana, Geneva, sans-serif">Stack is always loud.</text></g><rect x="26" y="641.8" width="748" height="498.2" fill="none" stroke="#1b1714" stroke-width="4"/>
<text x="774" y="1186" font-size="17" fill="#8d8378" font-family="Verdana, Geneva, sans-serif" text-anchor="end">ASHFALL COURIER — 1.05</text>
</svg>
