<svg xmlns="http://www.w3.org/2000/svg" viewBox="0 0 800 1200" width="800" height="1200" role="img" aria-label="Ashfall Courier, chapter 2, page 2">
<rect width="800" height="1200" fill="#efe7dc"/>
<clipPath id="p2_0"><rect x="26" y="26" width="748" height="476.5"/></clipPath><g clip-path="url(#p2_0)"><rect x="26" y="26" width="748" height="476.5217391304348" fill="#d8cfc2"/><path d="M26 502.5 L26 226.1 L51.5 264.9 L106.4 284.8 L189 233 L217.4 194.2 L255.5 229.5 L319.9 251.9 L376.9 276.7 L426.3 242.1 L463.7 208.2 L530 221.6 L565.7 219.4 L628.9 195.1 L700.9 279.5 L725.8 272.6 L774 262.5 L774 502.5 Z" fill="#2e2723"/><path d="M26 502.5 L26 340.5 L51.5 303 L109.7 305.9 L192.3 372.9 L238.3 387 L307.9 361.9 L334.1 372 L386.9 375.9 L417.4 398.2 L482.3 327.4 L542.3 300.4 L582.5 301.1 L646.3 332 L679.4 323.2 L752.2 313.7 L774 361.3 L774 502.5 Z" fill="#2e2723"/><g fill="#8d8378" opacity="0.45"><circle cx="47" cy="392" r="0.9"/><circle cx="300" cy="173" r="2.3"/><circle cx="635" cy="108" r="2.6"/><circle cx="74" cy="343" r="1.2"/><circle cx="247" cy="194" r="2.9"/><circle cx="534" cy="459" r="1.7"/><circle cx="766" cy="79" r="2.6"/><circle cx="420" cy="38" r="2.8"/><circle cx="94" cy="392" r="2.1"/><circle cx="236" cy="313" r="2"/><circle cx="769" cy="144" r="1.6"/><circle cx="362" cy="322" r="2.2"/><circle cx="253" cy="105" r="1.5"/><circle cx="170" cy="117" r="1.6"/><circle cx="734" cy="502" r="1.1"/><circle cx="282" cy="473" r="2.4"/><circle cx="349" cy="324" r="1.8"/><circle cx="403" cy="50" r="2.8"/><circle cx="173" cy="220" r="1.2"/><circle cx="742" cy="408" r="2.6"/><circle cx="235" cy="206" r="1.4"/><circle cx="122" cy="160" r="1.7"/><circle cx="310" cy="391" r="3"/><circle cx="716" cy="298" r="1.2"/><circle cx="655" cy="449" r="2.3"/><circle cx="450" cy="205" r="1.2"/><circle cx="112" cy="95" r="1.6"/></g></g><rect x="26" y="26" width="748" height="476.5" fill="none" stroke="#1b1714" stroke-width="4"/><clipPath id="p2_1"><rect x="26" y="520.5" width="748" height="619.5"/></clipPath><g clip-path="url(#p2_1)"><rect x="26" y="520.5217391304348" width="748" height="619.4782608695652" fill="#e2d9cc"/><path d="M26 1140 L26 1003.7 L52.2 1028.5 L120.7 963.7 L182.9 1037.1 L233 1016.8 L257.3 978.2 L325.7 1068.4 L399.7 1002.1 L453.7 949.4 L536 1044.6 L617.6 1064.6 L678.8 1055.9 L728.6 993.8 L774 1031.7 L774 1140 Z" fill="#2e2723"/><g fill="#8d8378" opacity="0.45"><circle cx="55" cy="542" r="1.2"/><circle cx="244" cy="1121" r="1.6"/><circle cx="468" cy="568" r="2"/><circle cx="400" cy="526" r="1.5"/><circle cx="562" cy="612" r="2.2"/><circle cx="274" cy="977" r="2.5"/><circle cx="365" cy="694" r="1"/><circle cx="473" cy="1005" r="2.3"/><circle cx="45" cy="1025" r="2.1"/><circle cx="368" cy="1046" r="2.9"/><circle cx="537" cy="598" r="1.7"/><circle cx="482" cy="865" r="2.4"/><circle cx="563" cy="964" r="2.5"/><circle cx="666" cy="832" r="2.2"/><circle cx="726" cy="1086" r="1.3"/><circle cx="265" cy="1055" r="1.4"/><circle cx="683" cy="817" r="1.3"/><circle cx="774" cy="713" r="1.8"/></g><g transform="translate(400 706.4) scale(1.15 1.15)" stroke="#1b1714" stroke-width="5" stroke-linecap="round" fill="none"><circle cx="0" cy="-8" r="11" fill="#efe7dc"/><path d="M0 3 L0 48" /><path d="M0 16 L-22 34 M0 16 L20 6"/><path d="M0 46 L-16 84 M0 46 L18 78 L26 86"/></g><g transform="translate(400 706.4) scale(1.15 1.15)"><path d="M-8 -2 q-26 6 -44 -6 q22 22 44 14 Z" fill="#e8622a"/><rect x="4" y="20" width="20" height="16" rx="3" fill="#2e2723"/></g><path d="M100.8 1053.3 L699.2 1053.3" stroke="#1b1714" stroke-width="4"/><text x="564.6" y="1028.5" font-size="46" fill="#e8622a" stroke="#1b1714" stroke-width="2" font-family="Verdana, Geneva, sans-serif" font-weight="bold" text-anchor="middle" transform="rotate(-8 564.6 1028.5)">TAK</text></g><rect x="26" y="520.5" width="748" height="619.5" fill="none" stroke="#1b1714" stroke-width="4"/>
<text x="774" y="1186" font-size="17" fill="#8d8378" font-family="Verdana, Geneva, sans-serif" text-anchor="end">ASHFALL COURIER — 2.02</text>
</svg>
