<svg xmlns="http://www.w3.org/2000/svg" viewBox="0 0 800 1200" width="800" height="1200" role="img" aria-label="Ashfall Courier, chapter 4, page 2">
<rect width="800" height="1200" fill="#efe7dc"/>
<clipPath id="p2_0"><rect x="26" y="26" width="748" height="619.5"/></clipPath><g clip-path="url(#p2_0)"><rect x="26" y="26" width="748" height="619.4782608695652" fill="#e2d9cc"/><path d="M26 645.5 L26 509.2 L98 478.9 L177.9 589.9 L256.5 575.6 L289.3 509.3 L353.2 499.5 L384.7 491.5 L425.1 525.2 L453.6 555.9 L509.6 540.5 L585.9 579.8 L632.1 590 L663.2 526 L722.9 527.1 L774 590.1 L774 645.5 Z" fill="#2e2723"/><g fill="#8d8378" opacity="0.45"><circle cx="625" cy="417" r="1.6"/><circle cx="158" cy="175" r="2.2"/><circle cx="252" cy="634" r="1.3"/><circle cx="487" cy="270" r="2.3"/><circle cx="143" cy="197" r="1.3"/><circle cx="81" cy="210" r="2.4"/><circle cx="300" cy="244" r="2.6"/><circle cx="630" cy="317" r="2.7"/><circle cx="162" cy="485" r="2.3"/><circle cx="646" cy="304" r="1.8"/><circle cx="531" cy="374" r="1.2"/><circle cx="472" cy="636" r="2.1"/><circle cx="259" cy="172" r="2.6"/><circle cx="287" cy="521" r="1.4"/><circle cx="593" cy="520" r="1.6"/><circle cx="448" cy="358" r="1.1"/><circle cx="308" cy="445" r="2.8"/><circle cx="772" cy="414" r="1.9"/></g><g transform="translate(400 211.8) scale(1.15 1.15)" stroke="#1b1714" stroke-width="5" stroke-linecap="round" fill="none"><circle cx="0" cy="-8" r="11" fill="#efe7dc"/><path d="M0 3 L0 48" /><path d="M0 16 L-22 34 M0 16 L20 6"/><path d="M0 46 L-16 84 M0 46 L18 78 L26 86"/></g><g transform="translate(400 211.8) scale(1.15 1.15)"><path d="M-8 -2 q-26 6 -44 -6 q22 22 44 14 Z" fill="#e8622a"/><rect x="4" y="20" width="20" height="16" rx="3" fill="#2e2723"/></g><path d="M100.8 558.8 L699.2 558.8" stroke="#1b1714" stroke-width="4"/><text x="564.6" y="534" font-size="46" fill="#e8622a" stroke="#1b1714" stroke-width="2" font-family="Verdana, Geneva, sans-serif" font-weight="bold" text-anchor="middle" transform="rotate(-8 564.6 534)">FWSH</text></g><rect x="26" y="26" width="748" height="619.5" fill="none" stroke="#1b1714" stroke-width="4"/><clipPath id="p2_1"><rect x="26" y="663.5" width="748" height="476.5"/></clipPath><g clip-path="url(#p2_1)"><rect x="26" y="663.4782608695652" width="748" height="476.5217391304348" fill="#d8cfc2"/><path d="M26 1140 L26 863.6 L98.7 925.4 L132.2 836.3 L190.4 828.7 L244.9 905.7 L295 833.2 L330.5 874 L387.8 824.2 L421.1 841.8 L461.8 832.3 L493.6 864.5 L565.2 867.9 L643 899.9 L681 845.5 L719.9 902.7 L774 874.9 L774 1140 Z" fill="#2e2723"/><path d="M26 1140 L26 978 L98.8 963.5 L135.5 962.3 L193.7 968.5 L265.8 993.7 L347.5 965.6 L404.6 994.1 L457.7 1028.2 L532.1 997.9 L600.5 951.4 L625.9 943.2 L701.9 949.6 L774 1036.8 L774 1140 Z" fill="#2e2723"/><g fill="#8d8378" opacity="0.45"><circle cx="636" cy="1134" r="2.3"/><circle cx="435" cy="1093" r="1.4"/><circle cx="214" cy="1083" r="0.9"/><circle cx="581" cy="750" r="0.9"/><circle cx="251" cy="899" r="2.3"/><circle cx="265" cy="1123" r="1.4"/><circle cx="335" cy="741" r="1.7"/><circle cx="499" cy="792" r="2"/><circle cx="419" cy="705" r="2.6"/><circle cx="184" cy="861" r="1.5"/><circle cx="337" cy="807" r="2.6"/><circle cx="50" cy="991" r="2.5"/><circle cx="30" cy="973" r="0.9"/><circle cx="602" cy="1093" r="1.3"/><circle cx="372" cy="849" r="2.4"/><circle cx="424" cy="770" r="2.1"/><circle cx="324" cy="1034" r="0.9"/><circle cx="632" cy="898" r="1.7"/><circle cx="218" cy="875" r="1.8"/><circle cx="421" cy="800" r="1.1"/><circle cx="280" cy="704" r="1.6"/><circle cx="495" cy="925" r="1.4"/><circle cx="251" cy="912" r="2.8"/><circle cx="265" cy="1099" r="1.5"/><circle cx="348" cy="740" r="1.1"/><circle cx="240" cy="800" r="1.1"/><circle cx="194" cy="1034" r="1.1"/></g></g><rect x="26" y="663.5" width="748" height="476.5" fill="none" stroke="#1b1714" stroke-width="4"/>
<text x="774" y="1186" font-size="17" fill="#8d8378" font-family="Verdana, Geneva, sans-serif" text-anchor="end">ASHFALL COURIER — 4.02</text>
</svg>
