<svg xmlns="http://www.w3.org/2000/svg" viewBox="0 0 800 1200" width="800" height="1200" role="img" aria-label="Ashfall Courier, chapter 5, page 7">
<rect width="800" height="1200" fill="#efe7dc"/>
<clipPath id="p7_0"><rect x="26" y="26" width="748" height="597.8"/></clipPath><g clip-path="url(#p7_0)"><rect x="26" y="26" width="748" height="597.8181818181818" fill="#ded5c8"/><path d="M26 623.8 L26 324.9 L63.2 350 L137.7 292.6 L163.2 292.5 L236.5 328.5 L297.7 359.2 L346.8 310.6 L380.8 303.8 L453.5 332.3 L519.7 288.4 L593.9 282.2 L629.9 359.4 L673.2 315.4 L755.4 390.2 L774 307.8 L774 623.8 Z" fill="#2e2723"/><g transform="translate(115.8 245.3) scale(-0.55 0.55)" stroke="#1b1714" stroke-width="5" stroke-linecap="round" fill="none"><circle cx="0" cy="-8" r="11" fill="#efe7dc"/><path d="M0 3 L0 48" /><path d="M0 16 L-14 40 M0 16 L14 40"/><path d="M-5 46 L-7 88 M5 46 L8 88"/></g><g transform="translate(115.8 245.3) scale(-0.55 0.55)"><path d="M-8 -2 q-26 6 -44 -6 q22 22 44 14 Z" fill="#e8622a"/><rect x="4" y="20" width="20" height="16" rx="3" fill="#2e2723"/></g><g transform="translate(228 258.5) scale(0.55 0.55)" stroke="#1b1714" stroke-width="5" stroke-linecap="round" fill="none"><circle cx="0" cy="-8" r="11" fill="#efe7dc"/><path d="M0 3 L0 48" /><path d="M0 16 L-14 40 M0 16 L14 40"/><path d="M-5 46 L-7 88 M5 46 L8 88"/></g><g transform="translate(228 258.5) scale(0.55 0.55)"><path d="M-8 -2 q-26 6 -44 -6 q22 22 44 14 Z" fill="#e8622a"/><rect x="4" y="20" width="20" height="16" rx="3" fill="#2e2723"/></g><g transform="translate(340.2 229.5) scale(-0.55 0.55)" stroke="#1b1714" stroke-width="5" stroke-linecap="round" fill="none"><circle cx="0" cy="-8" r="11" fill="#efe7dc"/><path d="M0 3 L0 48" /><path d="M0 16 L-14 40 M0 16 L14 40"/><path d="M-5 46 L-7 88 M5 46 L8 88"/></g><g transform="translate(340.2 229.5) scale(-0.55 0.55)"><path d="M-8 -2 q-26 6 -44 -6 q22 22 44 14 Z" fill="#e8622a"/><rect x="4" y="20" width="20" height="16" rx="3" fill="#2e2723"/></g><g transform="translate(452.4 264.3) scale(0.55 0.55)" stroke="#1b1714" stroke-width="5" stroke-linecap="round" fill="none"><circle cx="0" cy="-8" r="11" fill="#efe7dc"/><path d="M0 3 L0 48" /><path d="M0 16 L-14 40 M0 16 L14 40"/><path d="M-5 46 L-7 88 M5 46 L8 88"/></g><g transform="translate(452.4 264.3) scale(0.55 0.55)"><path d="M-8 -2 q-26 6 -44 -6 q22 22 44 14 Z" fill="#e8622a"/><rect x="4" y="20" width="20" height="16" rx="3" fill="#2e2723"/></g><g transform="translate(564.6 230.9) scale(-0.55 0.55)" stroke="#1b1714" stroke-width="5" stroke-linecap="round" fill="none"><circle cx="0" cy="-8" r="11" fill="#efe7dc"/><path d="M0 3 L0 48" /><path d="M0 16 L-14 40 M0 16 L14 40"/><path d="M-5 46 L-7 88 M5 46 L8 88"/></g><g transform="translate(564.6 230.9) scale(-0.55 0.55)"><path d="M-8 -2 q-26 6 -44 -6 q22 22 44 14 Z" fill="#e8622a"/><rect x="4" y="20" width="20" height="16" rx="3" fill="#2e2723"/></g><g transform="translate(676.8 292.6) scale(0.55 0.55)" stroke="#1b1714" stroke-width="5" stroke-linecap="round" fill="none"><circle cx="0" cy="-8" r="11" fill="#efe7dc"/><path d="M0 3 L0 48" /><path d="M0 16 L-14 40 M0 16 L14 40"/><path d="M-5 46 L-7 88 M5 46 L8 88"/></g><g transform="translate(676.8 292.6) scale(0.55 0.55)"><path d="M-8 -2 q-26 6 -44 -6 q22 22 44 14 Z" fill="#e8622a"/><rect x="4" y="20" width="20" height="16" rx="3" fill="#2e2723"/></g><g fill="#8d8378" opacity="0.45"><circle cx="192" cy="107" r="2.9"/><circle cx="308" cy="40" r="2.2"/><circle cx="332" cy="578" r="2.3"/><circle cx="30" cy="110" r="1.7"/><circle cx="47" cy="594" r="1.2"/><circle cx="215" cy="398" r="1.3"/><circle cx="496" cy="263" r="1.6"/><circle cx="56" cy="231" r="2.5"/><circle cx="531" cy="353" r="2"/><circle cx="679" cy="594" r="2.7"/><circle cx="634" cy="40" r="1.6"/><circle cx="129" cy="345" r="2.4"/><circle cx="438" cy="582" r="1.9"/><circle cx="375" cy="202" r="1.7"/><circle cx="375" cy="164" r="1.3"/><circle cx="472" cy="424" r="2.8"/></g></g><rect x="26" y="26" width="748" height="597.8" fill="none" stroke="#1b1714" stroke-width="4"/><clipPath id="p7_1"><rect x="26" y="641.8" width="748" height="498.2"/></clipPath><g clip-path="url(#p7_1)"><rect x="26" y="641.8181818181818" width="748" height="498.1818181818182" fill="#17130f"/><circle cx="400" cy="890.9" r="169.4" fill="#e8622a" opacity="0.14"/><circle cx="400" cy="890.9" r="10" fill="#e8622a"/><g fill="#8d8378" opacity="0.45"><circle cx="203" cy="887" r="1.4"/><circle cx="584" cy="982" r="1.5"/><circle cx="293" cy="1051" r="1.9"/><circle cx="124" cy="1104" r="2.4"/><circle cx="154" cy="725" r="2.2"/><circle cx="399" cy="786" r="2.5"/><circle cx="531" cy="745" r="2.8"/><circle cx="672" cy="712" r="1.7"/><circle cx="41" cy="1087" r="2.4"/><circle cx="216" cy="1097" r="2.3"/><circle cx="440" cy="1022" r="3"/><circle cx="456" cy="759" r="2.7"/></g><rect x="268.7" y="701.6" width="262.6" height="79.8" rx="30.7" fill="#efe7dc" stroke="#1b1714" stroke-width="3.5"/><text x="400" y="721.6" font-size="21" text-anchor="middle" fill="#1b1714" font-family="Verdana, Geneva, sans-serif">Give it here and you</text><text x="400" y="748.5" font-size="21" text-anchor="middle" fill="#1b1714" font-family="Verdana, Geneva, sans-serif">walk down.</text></g><rect x="26" y="641.8" width="748" height="498.2" fill="none" stroke="#1b1714" stroke-width="4"/>
<text x="774" y="1186" font-size="17" fill="#8d8378" font-family="Verdana, Geneva, sans-serif" text-anchor="end">ASHFALL COURIER — 5.07</text>
</svg>
