<svg xmlns="http://www.w3.org/2000/svg" viewBox="0 0 800 1200" width="800" height="1200" role="img" aria-label="Ashfall Courier, chapter 5, page 5">
<rect width="800" height="1200" fill="#efe7dc"/>
<clipPath id="p5_0"><rect x="26" y="26" width="748" height="597.8"/></clipPath><g clip-path="url(#p5_0)"><rect x="26" y="26" width="748" height="597.8181818181818" fill="#d4cbbe"/><rect x="26" y="540.1" width="194.5" height="53.8" fill="#2e2723" opacity="0.5"/><rect x="85.8" y="486.3" width="194.5" height="53.8" fill="#2e2723" opacity="0.56"/><rect x="145.7" y="432.5" width="194.5" height="53.8" fill="#2e2723" opacity="0.62"/><rect x="205.5" y="378.7" width="194.5" height="53.8" fill="#2e2723" opacity="0.68"/><rect x="265.4" y="324.9" width="194.5" height="53.8" fill="#2e2723" opacity="0.74"/><rect x="325.2" y="271.1" width="194.5" height="53.8" fill="#2e2723" opacity="0.8"/><rect x="385" y="217.3" width="194.5" height="53.8" fill="#2e2723" opacity="0.86"/><g transform="translate(489.8 205.3) scale(0.8 0.8)" stroke="#1b1714" stroke-width="5" stroke-linecap="round" fill="none"><circle cx="0" cy="-8" r="11" fill="#efe7dc"/><path d="M0 3 L0 48" /><path d="M0 16 L-14 40 M0 16 L14 40"/><path d="M0 46 L-20 72 L-14 88 M0 46 L16 74"/></g><g transform="translate(489.8 205.3) scale(0.8 0.8)"><path d="M-8 -2 q-26 6 -44 -6 q22 22 44 14 Z" fill="#e8622a"/><rect x="4" y="20" width="20" height="16" rx="3" fill="#2e2723"/></g><g fill="#8d8378" opacity="0.45"><circle cx="183" cy="165" r="0.9"/><circle cx="170" cy="443" r="2.4"/><circle cx="486" cy="389" r="1.7"/><circle cx="151" cy="398" r="1.9"/><circle cx="601" cy="320" r="2.7"/><circle cx="279" cy="458" r="2.4"/><circle cx="81" cy="37" r="1.3"/><circle cx="48" cy="561" r="1.8"/><circle cx="713" cy="271" r="1.6"/><circle cx="270" cy="47" r="1"/><circle cx="33" cy="62" r="1.9"/><circle cx="575" cy="514" r="1.2"/><circle cx="131" cy="400" r="2.5"/></g><text x="564.6" y="516.2" font-size="46" fill="#e8622a" stroke="#1b1714" stroke-width="2" font-family="Verdana, Geneva, sans-serif" font-weight="bold" text-anchor="middle" transform="rotate(-8 564.6 516.2)">clang</text></g><rect x="26" y="26" width="748" height="597.8" fill="none" stroke="#1b1714" stroke-width="4"/><clipPath id="p5_1"><rect x="26" y="641.8" width="748" height="498.2"/></clipPath><g clip-path="url(#p5_1)"><rect x="26" y="641.8181818181818" width="748" height="498.1818181818182" fill="#e7dfd2"/><g fill="#8d8378" opacity="0.45"><circle cx="190" cy="891" r="1.1"/><circle cx="114" cy="820" r="1.7"/><circle cx="319" cy="896" r="1"/><circle cx="477" cy="1122" r="2.1"/><circle cx="168" cy="785" r="2.1"/><circle cx="767" cy="916" r="1"/><circle cx="428" cy="736" r="1.9"/><circle cx="101" cy="966" r="1.4"/><circle cx="665" cy="868" r="1.5"/><circle cx="402" cy="782" r="2"/><circle cx="549" cy="1109" r="2.1"/></g><circle cx="400" cy="900.9" r="149.5" fill="#efe7dc" stroke="#1b1714" stroke-width="5"/><path d="M332.7 878.5 h50.8 M416.4 878.5 h50.8" stroke="#1b1714" stroke-width="6" stroke-linecap="round"/><path d="M355.2 957.7 q44.8 29.9 89.7 0" stroke="#1b1714" stroke-width="5" fill="none" stroke-linecap="round"/><path d="M250.5 1005.5 q149.5 74.7 298.9 0 l0 74.7 q-149.5 -44.8 -298.9 0 Z" fill="#e8622a"/></g><rect x="26" y="641.8" width="748" height="498.2" fill="none" stroke="#1b1714" stroke-width="4"/>
<text x="774" y="1186" font-size="17" fill="#8d8378" font-family="Verdana, Geneva, sans-serif" text-anchor="end">ASHFALL COURIER — 5.05</text>
</svg>
