<svg xmlns="http://www.w3.org/2000/svg" viewBox="0 0 800 1200" width="800" height="1200" role="img" aria-label="Ashfall Courier, chapter 6, page 7">
<rect width="800" height="1200" fill="#efe7dc"/>
<clipPath id="p7_0"><rect x="26" y="26" width="748" height="1114"/></clipPath><g clip-path="url(#p7_0)"><rect x="26" y="26" width="748" height="1114" fill="#17130f"/><circle cx="400" cy="583" r="254.3" fill="#e8622a" opacity="0.14"/><circle cx="400" cy="583" r="10" fill="#e8622a"/><g fill="#8d8378" opacity="0.45"><circle cx="484" cy="453" r="2.5"/><circle cx="486" cy="570" r="2.6"/><circle cx="50" cy="665" r="1.8"/><circle cx="623" cy="682" r="1.5"/><circle cx="587" cy="560" r="2.7"/><circle cx="134" cy="802" r="1.9"/><circle cx="29" cy="580" r="2.1"/><circle cx="209" cy="691" r="2.8"/><circle cx="608" cy="36" r="1.8"/><circle cx="438" cy="764" r="2.7"/><circle cx="730" cy="112" r="1.8"/><circle cx="152" cy="350" r="3"/></g><rect x="268.7" y="195.5" width="262.6" height="106.6" rx="41" fill="#efe7dc" stroke="#1b1714" stroke-width="3.5"/><text x="400" y="215.5" font-size="21" text-anchor="middle" fill="#1b1714" font-family="Verdana, Geneva, sans-serif">It is not a message.</text><text x="400" y="242.4" font-size="21" text-anchor="middle" fill="#1b1714" font-family="Verdana, Geneva, sans-serif">It is a claim of</text><text x="400" y="269.2" font-size="21" text-anchor="middle" fill="#1b1714" font-family="Verdana, Geneva, sans-serif">title.</text></g><rect x="26" y="26" width="748" height="1114" fill="none" stroke="#1b1714" stroke-width="4"/>
<text x="774" y="1186" font-size="17" fill="#8d8378" font-family="Verdana, Geneva, sans-serif" text-anchor="end">ASHFALL COURIER — 6.07</text>
</svg>
