<svg xmlns="http://www.w3.org/2000/svg" viewBox="0 0 800 1200" width="800" height="1200" role="img" aria-label="Ashfall Courier, chapter 7, page 3">
<rect width="800" height="1200" fill="#efe7dc"/>
<clipPath id="p3_0"><rect x="26" y="26" width="748" height="639.3"/></clipPath><g clip-path="url(#p3_0)"><rect x="26" y="26" width="748" height="639.3333333333334" fill="#3b2b23"/><path d="M119.5 614.2 L338.3 118.7 L461.7 118.7 L680.5 614.2 Z" fill="#2e2723"/><path d="M338.3 118.7 q56.1 -63.9 123.4 0" fill="none" stroke="#e8622a" stroke-width="5" stroke-linecap="round"/><circle cx="400" cy="80.3" r="121.6" fill="#e8622a" opacity="0.22"/><circle cx="400" cy="217.8" r="149.6" fill="#e8622a" opacity="0.35"/><g fill="#8d8378" opacity="0.45"><circle cx="754" cy="32" r="2.1"/><circle cx="139" cy="219" r="1.8"/><circle cx="168" cy="246" r="1"/><circle cx="324" cy="611" r="1.4"/><circle cx="147" cy="362" r="2.8"/><circle cx="35" cy="403" r="2.3"/><circle cx="462" cy="578" r="1.6"/><circle cx="299" cy="617" r="2.6"/><circle cx="258" cy="166" r="2.2"/><circle cx="199" cy="189" r="2.6"/><circle cx="158" cy="541" r="1.3"/><circle cx="724" cy="52" r="2.8"/><circle cx="361" cy="531" r="2.1"/><circle cx="447" cy="419" r="1.7"/><circle cx="401" cy="293" r="1.4"/><circle cx="675" cy="300" r="2"/><circle cx="343" cy="531" r="2.3"/><circle cx="752" cy="157" r="2.9"/><circle cx="752" cy="631" r="1.7"/><circle cx="296" cy="115" r="2.6"/><circle cx="459" cy="322" r="0.9"/><circle cx="614" cy="320" r="1.1"/><circle cx="528" cy="498" r="0.9"/><circle cx="530" cy="638" r="1.5"/><circle cx="177" cy="121" r="1.6"/><circle cx="587" cy="305" r="1.9"/><circle cx="718" cy="533" r="1.4"/><circle cx="415" cy="109" r="1.6"/><circle cx="253" cy="259" r="1.4"/><circle cx="349" cy="580" r="1.8"/><circle cx="612" cy="38" r="2.8"/><circle cx="594" cy="633" r="2.7"/><circle cx="402" cy="619" r="2.5"/><circle cx="586" cy="92" r="2.2"/><circle cx="691" cy="463" r="1.9"/><circle cx="253" cy="230" r="1.6"/></g><g transform="translate(205.5 409.6) scale(0.62 0.62)" stroke="#1b1714" stroke-width="5" stroke-linecap="round" fill="none"><circle cx="0" cy="-8" r="11" fill="#efe7dc"/><path d="M0 3 L0 48" /><path d="M0 16 L-18 30 M0 16 L26 -8"/><path d="M0 46 L-20 72 L-14 88 M0 46 L16 74"/></g><g transform="translate(205.5 409.6) scale(0.62 0.62)"><path d="M-8 -2 q-26 6 -44 -6 q22 22 44 14 Z" fill="#e8622a"/><rect x="4" y="20" width="20" height="16" rx="3" fill="#2e2723"/></g></g><rect x="26" y="26" width="748" height="639.3" fill="none" stroke="#1b1714" stroke-width="4"/><clipPath id="p3_1"><rect x="26" y="683.3" width="748" height="456.7"/></clipPath><g clip-path="url(#p3_1)"><rect x="26" y="683.3333333333334" width="748" height="456.6666666666667" fill="#ded5c8"/><path d="M26 1140 L26 911.7 L108.8 936 L188.3 953.6 L230.1 962.9 L311 955.4 L348.7 914.9 L377.6 929.5 L446.3 937.5 L471.3 911.8 L516.1 968 L597.5 954.4 L669.7 921.3 L753 880.8 L774 888.7 L774 1140 Z" fill="#2e2723"/><g transform="translate(115.8 892.5) scale(-0.55 0.55)" stroke="#1b1714" stroke-width="5" stroke-linecap="round" fill="none"><circle cx="0" cy="-8" r="11" fill="#efe7dc"/><path d="M0 3 L0 48" /><path d="M0 16 L-14 40 M0 16 L14 40"/><path d="M-5 46 L-7 88 M5 46 L8 88"/></g><g transform="translate(115.8 892.5) scale(-0.55 0.55)"><path d="M-8 -2 q-26 6 -44 -6 q22 22 44 14 Z" fill="#e8622a"/><rect x="4" y="20" width="20" height="16" rx="3" fill="#2e2723"/></g><g transform="translate(228 863.8) scale(0.55 0.55)" stroke="#1b1714" stroke-width="5" stroke-linecap="round" fill="none"><circle cx="0" cy="-8" r="11" fill="#efe7dc"/><path d="M0 3 L0 48" /><path d="M0 16 L-14 40 M0 16 L14 40"/><path d="M-5 46 L-7 88 M5 46 L8 88"/></g><g transform="translate(228 863.8) scale(0.55 0.55)"><path d="M-8 -2 q-26 6 -44 -6 q22 22 44 14 Z" fill="#e8622a"/><rect x="4" y="20" width="20" height="16" rx="3" fill="#2e2723"/></g><g transform="translate(340.2 843.3) scale(-0.55 0.55)" stroke="#1b1714" stroke-width="5" stroke-linecap="round" fill="none"><circle cx="0" cy="-8" r="11" fill="#efe7dc"/><path d="M0 3 L0 48" /><path d="M0 16 L-14 40 M0 16 L14 40"/><path d="M-5 46 L-7 88 M5 46 L8 88"/></g><g transform="translate(340.2 843.3) scale(-0.55 0.55)"><path d="M-8 -2 q-26 6 -44 -6 q22 22 44 14 Z" fill="#e8622a"/><rect x="4" y="20" width="20" height="16" rx="3" fill="#2e2723"/></g><g transform="translate(452.4 846.9) scale(0.55 0.55)" stroke="#1b1714" stroke-width="5" stroke-linecap="round" fill="none"><circle cx="0" cy="-8" r="11" fill="#efe7dc"/><path d="M0 3 L0 48" /><path d="M0 16 L-14 40 M0 16 L14 40"/><path d="M-5 46 L-7 88 M5 46 L8 88"/></g><g transform="translate(452.4 846.9) scale(0.55 0.55)"><path d="M-8 -2 q-26 6 -44 -6 q22 22 44 14 Z" fill="#e8622a"/><rect x="4" y="20" width="20" height="16" rx="3" fill="#2e2723"/></g><g transform="translate(564.6 854.8) scale(-0.55 0.55)" stroke="#1b1714" stroke-width="5" stroke-linecap="round" fill="none"><circle cx="0" cy="-8" r="11" fill="#efe7dc"/><path d="M0 3 L0 48" /><path d="M0 16 L-14 40 M0 16 L14 40"/><path d="M-5 46 L-7 88 M5 46 L8 88"/></g><g transform="translate(564.6 854.8) scale(-0.55 0.55)"><path d="M-8 -2 q-26 6 -44 -6 q22 22 44 14 Z" fill="#e8622a"/><rect x="4" y="20" width="20" height="16" rx="3" fill="#2e2723"/></g><g transform="translate(676.8 873.6) scale(0.55 0.55)" stroke="#1b1714" stroke-width="5" stroke-linecap="round" fill="none"><circle cx="0" cy="-8" r="11" fill="#efe7dc"/><path d="M0 3 L0 48" /><path d="M0 16 L-14 40 M0 16 L14 40"/><path d="M-5 46 L-7 88 M5 46 L8 88"/></g><g transform="translate(676.8 873.6) scale(0.55 0.55)"><path d="M-8 -2 q-26 6 -44 -6 q22 22 44 14 Z" fill="#e8622a"/><rect x="4" y="20" width="20" height="16" rx="3" fill="#2e2723"/></g><g fill="#8d8378" opacity="0.45"><circle cx="761" cy="769" r="0.9"/><circle cx="56" cy="819" r="1.7"/><circle cx="426" cy="835" r="1.4"/><circle cx="607" cy="1051" r="2.3"/><circle cx="479" cy="852" r="1.6"/><circle cx="174" cy="804" r="0.9"/><circle cx="586" cy="750" r="2.9"/><circle cx="679" cy="688" r="2"/><circle cx="121" cy="1059" r="0.8"/><circle cx="506" cy="999" r="2.2"/><circle cx="234" cy="925" r="1.5"/><circle cx="390" cy="947" r="1"/><circle cx="30" cy="920" r="1.2"/><circle cx="86" cy="772" r="2.5"/><circle cx="722" cy="1037" r="2.5"/><circle cx="659" cy="1120" r="1.6"/></g><rect x="231.3" y="734.8" width="262.6" height="79.8" rx="30.7" fill="#efe7dc" stroke="#1b1714" stroke-width="3.5"/><path d="M281.3 812.5 L299.3 840.5 L307.3 812.5 Z" fill="#efe7dc" stroke="#1b1714" stroke-width="3.5"/><path d="M283.3 811.5 h22" stroke="#efe7dc" stroke-width="5"/><text x="362.6" y="754.8" font-size="21" text-anchor="middle" fill="#1b1714" font-family="Verdana, Geneva, sans-serif">You are eleven hours</text><text x="362.6" y="781.7" font-size="21" text-anchor="middle" fill="#1b1714" font-family="Verdana, Geneva, sans-serif">early, runner.</text></g><rect x="26" y="683.3" width="748" height="456.7" fill="none" stroke="#1b1714" stroke-width="4"/>
<text x="774" y="1186" font-size="17" fill="#8d8378" font-family="Verdana, Geneva, sans-serif" text-anchor="end">ASHFALL COURIER — 7.03</text>
</svg>
