<svg xmlns="http://www.w3.org/2000/svg" viewBox="0 0 800 1200" width="800" height="1200" role="img" aria-label="Ashfall Courier, chapter 8, page 8">
<rect width="800" height="1200" fill="#efe7dc"/>
<clipPath id="p8_0"><rect x="26" y="26" width="748" height="1114"/></clipPath><g clip-path="url(#p8_0)"><rect x="26" y="26" width="748" height="1114" fill="#f4efe6"/><circle cx="579.5" cy="315.6" r="178.2" fill="#e8622a" opacity="0.55"/><path d="M26 1140 L26 850.4 L73.4 812.2 L133.7 956.5 L202.9 996.8 L242.6 865.2 L291.4 993.2 L334 842.9 L379.4 966.4 L443.7 915.4 L513.9 992.9 L577.9 873.1 L614.4 928.1 L663.2 917.8 L696.8 958.3 L727.3 883.7 L774 895.9 L774 1140 Z" fill="#2e2723"/><g transform="translate(250.4 516.2) scale(0.85 0.85)" stroke="#1b1714" stroke-width="5" stroke-linecap="round" fill="none"><circle cx="0" cy="-8" r="11" fill="#efe7dc"/><path d="M0 3 L0 48" /><path d="M0 16 L-14 40 M0 16 L14 40"/><path d="M-5 46 L-7 88 M5 46 L8 88"/></g><g transform="translate(250.4 516.2) scale(0.85 0.85)"><path d="M-8 -2 q-26 6 -44 -6 q22 22 44 14 Z" fill="#e8622a"/><rect x="4" y="20" width="20" height="16" rx="3" fill="#2e2723"/></g><rect x="236.9" y="779.4" width="251.5" height="52.9" rx="20.3" fill="#efe7dc" stroke="#1b1714" stroke-width="3.5"/><path d="M404.9 830.2 L422.9 858.2 L430.9 830.2 Z" fill="#efe7dc" stroke="#1b1714" stroke-width="3.5"/><path d="M406.9 829.2 h22" stroke="#efe7dc" stroke-width="5"/><text x="362.6" y="799.4" font-size="21" text-anchor="middle" fill="#1b1714" font-family="Verdana, Geneva, sans-serif">Good. Let them ask.</text></g><rect x="26" y="26" width="748" height="1114" fill="none" stroke="#1b1714" stroke-width="4"/>
<text x="774" y="1186" font-size="17" fill="#8d8378" font-family="Verdana, Geneva, sans-serif" text-anchor="end">ASHFALL COURIER — 8.08</text>
</svg>
